# xmcd CD database file
#
# Track frame offsets:
#	150
#	2770
#	29590
#	45772
#	62452
#	71345
#	93327
#	108710
#	122777
#	139970
#	167542
#	191607
#	208200
#	225600
#	245380
#
# Disc length: 3460 seconds
#
# Revision: 0
# Processed by: cddbd v1.5.2PL0 Copyright (c) Steve Scherf et al.
# Submitted via: CDex 1.51
#
DISCID=c90d820f
DTITLE=Heartglow - From Prison to Paradise
DYEAR=1998
DGENRE=New Age
TTITLE0=Welcome to my World
TTITLE1=You can Do it!
TTITLE2=From Prison to Paradise
TTITLE3=Back in Balance
TTITLE4=Caught Between the Stars
TTITLE5=Only Lonely
TTITLE6=The Flow Glow
TTITLE7=Walk Your Talk
TTITLE8=Ego and Adrenalin
TTITLE9=Heartglow
TTITLE10=Warrior of Light
TTITLE11=Twogether x Fourever
TTITLE12=More > Memories
TTITLE13=Illusion Confusion
TTITLE14=Everything Changes - Everything Returns
EXTD=YEAR: 1998
EXTT0=
EXTT1=
EXTT2=
EXTT3=
EXTT4=
EXTT5=
EXTT6=
EXTT7=
EXTT8=
EXTT9=
EXTT10=
EXTT11=
EXTT12=
EXTT13=
EXTT14=
PLAYORDER=
